static_00
version=1
nRows=9
nColumns=46
inDegrees=yes
endheader
time	ground_force1_vx	ground_force1_vy	ground_force1_vz	ground_force1_px	ground_force1_py	ground_force1_pz	ground_torque1_x	ground_torque1_y	ground_torque1_z	ground_force2_vx	ground_force2_vy	ground_force2_vz	ground_force2_px	ground_force2_py	ground_force2_pz	ground_torque2_x	ground_torque2_y	ground_torque2_z	ground_force3_vx	ground_force3_vy	ground_force3_vz	ground_force3_px	ground_force3_py	ground_force3_pz	ground_torque3_x	ground_torque3_y	ground_torque3_z	ground_force4_vx	ground_force4_vy	ground_force4_vz	ground_force4_px	ground_force4_py	ground_force4_pz	ground_torque4_x	ground_torque4_y	ground_torque4_z	ground_force5_vx	ground_force5_vy	ground_force5_vz	ground_force5_px	ground_force5_py	ground_force5_pz	ground_torque5_x	ground_torque5_y	ground_torque5_z
0.475000	-0.000000	-0.000000	0.000000	0.200000	0.000000	0.920000	0.000000	0.000000	0.000000	-0.000000	-0.000000	0.000000	0.200000	0.000000	0.320000	0.000000	0.000000	0.000000	-0.000000	-0.000000	0.000000	0.200000	0.000000	-0.300000	0.000000	0.000000	0.000000	-1.540615	575.476135	2.907112	0.167120	0.000000	-0.840949	0.000014	0.040267	0.000008	-0.000000	-0.000000	0.000000	0.200000	0.000000	-1.500000	0.000000	0.000000	0.000000	
0.475500	-0.000000	-0.000000	0.000000	0.200000	0.000000	0.920000	0.000000	0.000000	0.000000	-0.000000	-0.000000	0.000000	0.200000	0.000000	0.320000	0.000000	0.000000	0.000000	-0.000000	-0.000000	0.000000	0.200000	0.000000	-0.300000	0.000000	0.000000	0.000000	-1.700885	576.917175	2.664781	0.167146	0.000000	-0.841171	0.000042	-0.012348	0.000010	-0.000000	-0.000000	0.000000	0.200000	0.000000	-1.500000	0.000000	0.000000	0.000000	
0.476000	-0.000000	-0.000000	0.000000	0.200000	0.000000	0.920000	0.000000	0.000000	0.000000	-0.000000	-0.000000	0.000000	0.200000	0.000000	0.320000	0.000000	0.000000	0.000000	-0.000000	-0.000000	0.000000	0.200000	0.000000	-0.300000	0.000000	0.000000	0.000000	-1.861156	578.358215	2.422450	0.167172	0.000000	-0.841392	0.000024	-0.064882	-0.000001	-0.000000	-0.000000	0.000000	0.200000	0.000000	-1.500000	0.000000	0.000000	0.000000	
0.476500	-0.000000	-0.000000	0.000000	0.200000	0.000000	0.920000	0.000000	0.000000	0.000000	-0.000000	-0.000000	0.000000	0.200000	0.000000	0.320000	0.000000	0.000000	0.000000	-0.000000	-0.000000	0.000000	0.200000	0.000000	-0.300000	0.000000	0.000000	0.000000	-1.619591	576.919922	2.342692	0.167493	0.000000	-0.841077	0.000042	-0.035248	0.000005	-0.000000	-0.000000	0.000000	0.200000	0.000000	-1.500000	0.000000	0.000000	0.000000	
0.477000	-0.000000	-0.000000	0.000000	0.200000	0.000000	0.920000	0.000000	0.000000	0.000000	-0.000000	-0.000000	0.000000	0.200000	0.000000	0.320000	0.000000	0.000000	0.000000	-0.000000	-0.000000	0.000000	0.200000	0.000000	-0.300000	0.000000	0.000000	0.000000	-1.378027	575.481567	2.262935	0.167815	0.000000	-0.840760	0.000017	-0.005418	0.000010	-0.000000	-0.000000	0.000000	0.200000	0.000000	-1.500000	0.000000	0.000000	0.000000	
0.477500	-0.000000	-0.000000	0.000000	0.200000	0.000000	0.920000	0.000000	0.000000	0.000000	-0.000000	-0.000000	0.000000	0.200000	0.000000	0.320000	0.000000	0.000000	0.000000	-0.000000	-0.000000	0.000000	0.200000	0.000000	-0.300000	0.000000	0.000000	0.000000	-1.540614	575.637451	2.421939	0.167370	0.000000	-0.840835	0.000017	0.101019	0.000000	-0.000000	-0.000000	0.000000	0.200000	0.000000	-1.500000	0.000000	0.000000	0.000000	
0.478000	-0.000000	-0.000000	0.000000	0.200000	0.000000	0.920000	0.000000	0.000000	0.000000	-0.000000	-0.000000	0.000000	0.200000	0.000000	0.320000	0.000000	0.000000	0.000000	-0.000000	-0.000000	0.000000	0.200000	0.000000	-0.300000	0.000000	0.000000	0.000000	-1.703202	575.793396	2.580944	0.166925	0.000000	-0.840910	0.000030	0.207621	0.000000	-0.000000	-0.000000	0.000000	0.200000	0.000000	-1.500000	0.000000	0.000000	0.000000	
0.478500	-0.000000	-0.000000	0.000000	0.200000	0.000000	0.920000	0.000000	0.000000	0.000000	-0.000000	-0.000000	0.000000	0.200000	0.000000	0.320000	0.000000	0.000000	0.000000	-0.000000	-0.000000	0.000000	0.200000	0.000000	-0.300000	0.000000	0.000000	0.000000	-2.108125	574.994812	2.099340	0.167011	0.000000	-0.840915	0.000013	0.126370	-0.000002	-0.000000	-0.000000	0.000000	0.200000	0.000000	-1.500000	0.000000	0.000000	0.000000	
0.479000	-0.000000	-0.000000	0.000000	0.200000	0.000000	0.920000	0.000000	0.000000	0.000000	-0.000000	-0.000000	0.000000	0.200000	0.000000	0.320000	0.000000	0.000000	0.000000	-0.000000	-0.000000	0.000000	0.200000	0.000000	-0.300000	0.000000	0.000000	0.000000	-2.513048	574.196228	1.617737	0.167098	0.000000	-0.840921	0.000018	0.045207	0.000004	-0.000000	-0.000000	0.000000	0.200000	0.000000	-1.500000	0.000000	0.000000	0.000000	
